# xmcd
#
# Track frame offsets:
#	150
#	19677
#	29151
#	46623
#	65041
#	81278
#	98594
#	116185
#
# Disc length: 1649 seconds
#
# Revision: 1
# Processed by: cddbd v1.5.2PL0 Copyright (c) Steve Scherf et al.
# Submitted via: audiograbber 1.83.01
#
DISCID=65066f08
DTITLE=Billy Iuso - Paradise Lost
DYEAR=2006
DGENRE=Blues
TTITLE0=When Can I Come Home
TTITLE1=Who Knows What Tomorrow May Bring
TTITLE2=Oh, I See
TTITLE3=I Don't Know What It Is
TTITLE4=Crankin It Off
TTITLE5=Ruff In Da Stuff
TTITLE6=Once In A Lifetime
TTITLE7=Meatballs and Turtle Soup
EXTD=
EXTT0=
EXTT1=
EXTT2=
EXTT3=
EXTT4=
EXTT5=
EXTT6=
EXTT7=
PLAYORDER=
